<?xml version="1.0" encoding="UTF-8" standalone="no"?>
<svg width="32px" height="32px" viewBox="0 0 32 32" version="1.1" xmlns="http://www.w3.org/2000/svg" xmlns:xlink="http://www.w3.org/1999/xlink">
    <!-- Generator: Sketch 44.1 (41455) - http://www.bohemiancoding.com/sketch -->
    <title>Arrow 6</title>
    <desc>Created with Sketch.</desc>
    <defs></defs>
    <g id="Page-2-Copy" stroke="none" stroke-width="1" fill="none" fill-rule="evenodd">
        <g id="18" stroke="#979797" fill-rule="nonzero">
            <path d="M11.7781746,19.4644661 L11.7781746,13.7781746 C11.7781746,13.2258898 11.3304593,12.7781746 10.7781746,12.7781746 C10.2258898,12.7781746 9.77817459,13.2258898 9.77817459,13.7781746 L9.77817459,21.7781746 C9.77817459,22.3304593 10.2258898,22.7781746 10.7781746,22.7781746 L18.7781746,22.7781746 C19.3304593,22.7781746 19.7781746,22.3304593 19.7781746,21.7781746 C19.7781746,21.2258898 19.3304593,20.7781746 18.7781746,20.7781746 L13.2928932,20.7781746 L21.8123751,12.2586927 C22.2019039,11.869164 22.2038195,11.2395287 21.8105725,10.8462817 C21.4200482,10.4557575 20.7861223,10.4565184 20.4021201,10.8405206 L11.7781746,19.4644661 Z" id="Rectangle-348" stroke="none" fill="#2A2630" transform="translate(16.192388, 16.192388) rotate(-225.000000) translate(-16.192388, -16.192388) "></path>
            <path d="M32,16 C32,24.836556 24.836556,32 16,32 C7.163444,32 0,24.836556 0,16 C0,7.163444 7.163444,0 16,0 C24.836556,0 32,7.163444 32,16 Z M2,16 C2,23.7319865 8.2680135,30 16,30 C23.7319865,30 30,23.7319865 30,16 C30,8.2680135 23.7319865,2 16,2 C8.2680135,2 2,8.2680135 2,16 Z" id="Oval-1" stroke="none" fill="#95909E"></path>
        </g>
    </g>
</svg>